<?xml version="1.0" encoding="UTF-8"?>
<svg width="14px" height="14px" viewBox="0 0 14 14" version="1.1" xmlns="http://www.w3.org/2000/svg" xmlns:xlink="http://www.w3.org/1999/xlink">
    <!-- Generator: Sketch 51.2 (57519) - http://www.bohemiancoding.com/sketch -->
    <title>Slice</title>
    <desc>Created with Sketch.</desc>
    <defs></defs>
    <g id="Page-1" stroke="none" stroke-width="1" fill="none" fill-rule="evenodd" stroke-linecap="square">
        <path d="M6.3890873,3.81801948 L15.3388348,3.81801948" id="Line" stroke="#FF3232" stroke-width="2" transform="translate(10.889087, 3.818019) rotate(45.000000) translate(-10.889087, -3.818019) "></path>
        <path d="M10.5355339,6.53553391 L10.5355339,14.5355339" id="Line" stroke="#FF3232" stroke-width="2" transform="translate(10.535534, 10.535534) rotate(45.000000) translate(-10.535534, -10.535534) "></path>
        <path d="M3.46446609,-1.48528137 L3.46446609,8.41421356" id="Line" stroke="#FF3232" stroke-width="2" transform="translate(3.464466, 3.464466) rotate(45.000000) translate(-3.464466, -3.464466) "></path>
        <path d="M-0.681980515,10.8890873 L8.26776695,10.8890873" id="Line" stroke="#FF3232" stroke-width="2" transform="translate(3.818019, 10.889087) rotate(45.000000) translate(-3.818019, -10.889087) "></path>
        <path d="M13.0104076,9.47487373 L13.0104076,16.5459415" id="Line-4" stroke="#FF3232" transform="translate(13.010408, 13.010408) rotate(45.000000) translate(-13.010408, -13.010408) "></path>
        <path d="M3.25735931,12.6568542 L-2.39949494,12.6568542" id="Line-3" stroke="#FF3232" transform="translate(0.636039, 12.656854) rotate(45.000000) translate(-0.636039, -12.656854) "></path>
        <g id="Group" transform="translate(7.000000, 7.000000) rotate(45.000000) translate(-7.000000, -7.000000) translate(4.000000, 4.000000)" stroke="#FF3232">
            <path d="M4.5,1.5 L4.5,4.5" id="Line-2"></path>
            <path d="M1.5,1.5 L1.5,4.5" id="Line-4"></path>
            <path d="M1.5,4.5 L4.5,4.5" id="Line-5"></path>
            <path d="M4.5,1.5 L1.5,1.5" id="Line-3"></path>
        </g>
        <path d="M0.636038969,-4.10660172 L0.636038969,7.20710678" id="Line-2" stroke="#FF3232" transform="translate(0.636039, 1.343146) rotate(45.000000) translate(-0.636039, -1.343146) "></path>
        <path d="M9.03553391,2.05025253 L18.9350288,2.05025253" id="Line-5" stroke="#FF3232" transform="translate(14.071068, 2.050253) rotate(45.000000) translate(-14.071068, -2.050253) "></path>
    </g>
</svg>