<!DOCTYPE svg PUBLIC "-//W3C//DTD SVG 20010904//EN" "http://www.w3.org/TR/2001/REC-SVG-20010904/DTD/svg10.dtd">
<svg version="1.0" xmlns="http://www.w3.org/2000/svg" width="19px" height="19px" viewBox="0 0 1800 1800" preserveAspectRatio="xMidYMid meet">
<g id="layer101" fill="#13ab67" stroke="none">
 <path d="M99 1770 c-24 -16 -55 -46 -69 -66 l-25 -38 0 -766 0 -766 25 -38 c14 -20 45 -50 69 -66 l44 -30 757 0 757 0 44 30 c24 16 55 46 69 66 l25 38 0 766 0 766 -25 38 c-14 20 -45 50 -69 66 l-44 30 -757 0 -757 0 -44 -30z"/>
 </g>
<g id="layer102" fill="#ffffff" stroke="none">
 <path d="M865 1514 c-11 -2 -45 -9 -75 -15 -185 -38 -358 -187 -432 -374 -27 -69 -32 -96 -36 -195 -5 -133 9 -203 61 -309 44 -92 178 -225 268 -269 207 -100 437 -86 622 38 115 77 114 68 16 166 l-84 84 -54 -40 c-70 -53 -142 -73 -240 -68 -138 7 -252 81 -314 207 -29 60 -32 74 -32 161 0 84 3 102 29 157 34 74 113 154 183 185 33 15 76 23 134 26 102 5 162 -11 240 -65 l52 -35 84 83 84 84 -43 38 c-52 45 -154 99 -228 121 -55 16 -198 29 -235 20z"/>
 </g>

</svg>