<svg id="Layer_1" data-name="Layer 1" xmlns="http://www.w3.org/2000/svg" width="217" height="34.80278" viewBox="0 0 217 34.80278"><defs><style>.cls-1{fill:#fff;}.cls-2{fill:#86e3e4;}.cls-3{fill:#e02b31;}.cls-4{fill:#bc041b;}</style></defs><title>hearts_logo_game</title><path class="cls-1" d="M132.092,13.76675a3.3583,3.3583,0,0,0,.62985-2.05967,3.61058,3.61058,0,0,0-.34761-1.67181,2.82087,2.82087,0,0,0-.93631-1.06589,3.92754,3.92754,0,0,0-1.37351-.56533,7.79279,7.79279,0,0,0-1.65519-.16987h-4.4264V19.67061h2.51994V15.09941h1.24393l2.3904,4.57119h3.0208l-2.90758-4.8298A2.83643,2.83643,0,0,0,132.092,13.76675Zm-2.1887-1.34869a1.19425,1.19425,0,0,1-.50872.37939,2.25,2.25,0,0,1-.68676.14535q-.37946.02455-.71888.02422h-1.48618V10.36651h1.64789a5.13184,5.13184,0,0,1,.69462.04845,2.01854,2.01854,0,0,1,.62985.18564,1.19222,1.19222,0,0,1,.45241.39576,1.20862,1.20862,0,0,1,.17744.69466A1.15967,1.15967,0,0,1,129.90331,12.41806Zm25.77307,7.25255h-8.06068V8.23417h8.06859v2.32614h-5.54864V12.6924h5.54864v2.32618h-5.54864v2.32584h5.54074ZM177.6211,8.23417H180.141V19.67061h-3.29518l-4.99088-8.141h-.03268v8.141h-2.51994V8.23417h3.42472l4.86189,7.94746h.03213ZM201.06858,9.5347a5.97593,5.97593,0,0,0-2.15661-.99352,10.79337,10.79337,0,0,0-2.60838-.307h-3.78023V19.67061h4.11938a7.9593,7.9593,0,0,0,2.43881-.37153,6.25093,6.25093,0,0,0,2.05181-1.09042A5.25741,5.25741,0,0,0,202.5463,16.432a5.43966,5.43966,0,0,0,.525-2.44727,5.98859,5.98859,0,0,0-.54081-2.66529A4.87477,4.87477,0,0,0,201.06858,9.5347Zm-.929,5.96047a2.82964,2.82964,0,0,1-.86419,1.08221,3.47472,3.47472,0,0,1-1.30028.5896,7.03526,7.03526,0,0,1-1.62307.17744h-1.3087V10.56031h1.48613a5.56045,5.56045,0,0,1,1.5104.202,3.719,3.719,0,0,1,1.25183.60562,2.92346,2.92346,0,0,1,.84787,1.0259,3.195,3.195,0,0,1,.31492,1.46165A3.8365,3.8365,0,0,1,200.13958,15.49517ZM100.395,8.23417h10.19926v2.22924h-3.83992v9.2072h-2.51994v-9.2072H100.395ZM225,39.27338a3.67869,3.67869,0,0,1-.35491,1.66361,3.38985,3.38985,0,0,1-.96113,1.17941,4.09422,4.09422,0,0,1-1.4056.69436,6.44636,6.44636,0,0,1-3.756-.113,5.17745,5.17745,0,0,1-1.77628-1.09828l1.79319-1.97067a2.60645,2.60645,0,0,0,.9769.79942,2.79157,2.79157,0,0,0,1.21966.28279,2.75372,2.75372,0,0,0,.62143-.07267,2.0107,2.0107,0,0,0,.56563-.21828,1.22328,1.22328,0,0,0,.40392-.37128.9289.9289,0,0,0,.15381-.5332.9683.9683,0,0,0-.39606-.81578,3.66487,3.66487,0,0,0-.99322-.50872q-.59832-.20956-1.29238-.42a5.79,5.79,0,0,1-1.29238-.56533,3.11287,3.11287,0,0,1-.99377-.93691,2.6811,2.6811,0,0,1-.3955-1.53463,3.43572,3.43572,0,0,1,.36393-1.61516,3.50564,3.50564,0,0,1,.969-1.16309,4.20819,4.20819,0,0,1,1.39718-.70252,5.72051,5.72051,0,0,1,1.63152-.23439,6.42735,6.42735,0,0,1,1.87377.27468,4.32853,4.32853,0,0,1,1.63152.9208l-1.72842,1.88984a1.79822,1.79822,0,0,0-.8321-.57349,2.98419,2.98419,0,0,0-.99322-.18564,2.6171,2.6171,0,0,0-.56563.06451,2.16762,2.16762,0,0,0-.54871.202,1.19229,1.19229,0,0,0-.42028.36337,1.00651,1.00651,0,0,0,.22593,1.34083,3.67356,3.67356,0,0,0,.97741.46843q.58986.19354,1.2676.3876a5.22393,5.22393,0,0,1,1.26871.54931,3.00076,3.00076,0,0,1,.9769.95293A2.90409,2.90409,0,0,1,225,39.27338ZM107.942,31.30981h2.52V42.74625h-2.52V37.80353h-4.89453v4.94272h-2.52V31.30981h2.52v4.26447H107.942Zm16.598,0h8.06859V33.636h-5.54864v2.13209h5.54864v2.32614h-5.54864v2.32589h5.54078v2.32614H124.54Zm26.048,0-4.943,11.43644h2.77851l.95323-2.423h4.44161l.98536,2.423H157.647l-4.97511-11.43644Zm-.42024,6.88131,1.38923-3.55375,1.40564,3.55375Zm28.07558-1.34869a3.35852,3.35852,0,0,0,.62985-2.05971,3.61082,3.61082,0,0,0-.34761-1.67181,2.82119,2.82119,0,0,0-.93631-1.06589,3.92916,3.92916,0,0,0-1.37351-.56533,7.79557,7.79557,0,0,0-1.65519-.16987h-4.4264V42.74625h2.51994V38.17506H173.898l2.3904,4.57119h3.0208l-2.90758-4.82976A2.83643,2.83643,0,0,0,178.24334,36.84244Zm-2.1887-1.34873a1.19435,1.19435,0,0,1-.50872.37944,2.25252,2.25252,0,0,1-.68676.14535q-.37946.02448-.71888.02422h-1.48618V33.4422H174.302a5.13184,5.13184,0,0,1,.69462.04845,2.01741,2.01741,0,0,1,.62985.18564,1.19186,1.19186,0,0,1,.45241.39576,1.20847,1.20847,0,0,1,.17744.69462A1.15967,1.15967,0,0,1,176.05464,35.49371Zm16.64307-4.18389H202.897V33.5391h-3.83992v9.20715h-2.52V33.5391h-3.83936Z" transform="translate(-8 -8.23417)"/><polygon class="cls-2" points="0 28.794 23.076 28.794 34.614 17.256 23.076 5.718 0 28.794"/><polygon class="cls-3" points="69.227 28.794 46.151 5.718 34.614 17.256 46.151 28.794 69.227 28.794"/><polygon class="cls-4" points="23.076 5.718 34.614 17.256 46.151 5.718 23.076 5.718"/></svg>